<?xml version="1.0" encoding="utf-8"?>
<!-- Generator: Adobe Illustrator 22.0.1, SVG Export Plug-In . SVG Version: 6.00 Build 0)  -->
<svg version="1.1" id="_x38_2c9637c-9e0f-4c50-b522-5ac82e7973bc"
	 xmlns="http://www.w3.org/2000/svg" xmlns:xlink="http://www.w3.org/1999/xlink" x="0px" y="0px" viewBox="0 0 223 57"
	 style="enable-background:new 0 0 223 57;" xml:space="preserve">
<style type="text/css">
	.st0{fill:#C30036;}
	.st1{fill:#009CDF;}
</style>
<g>
	<g>
		<g id="_x34_907f4ba-9905-48d9-a274-42f4c4df6f09">
			<g id="_x35_6593e98-c07e-4899-b92b-8ba7d11d2758">
				<g>
					<path d="M39,19.8c0,5.2,4.3,9.5,9.5,9.5h4.1v7.9h-4.1c-5.2,0-9.5,4.3-9.5,9.5l0,0v9.5h-9.5v-20c1.4-0.8,2.7-1.8,3.9-3l0,0
						l-3.9-3.9v-9.5c0-10.5,8.5-19,19-19c5,0,9.8,2,13.4,5.6l-6.7,6.7c-3.7-3.7-9.7-3.7-13.4,0C40,14.9,39,17.3,39,19.8z"/>
					<path class="st1" d="M33.4,33.2L33.4,33.2c-1.2,1.2-2.5,2.2-3.9,3c-9.1,5.3-20.7,2.2-26-6.9s-2.2-20.7,6.9-26
						c7.5-4.3,16.9-3.1,23,3l-6.7,6.7l0,0l0,0c-3.7-3.7-9.7-3.7-13.4,0s-3.7,9.7,0,13.4c1.8,1.8,4.2,2.8,6.7,2.8l0,0
						c2.5,0,4.9-1,6.7-2.8l2.8,2.8L33.4,33.2z"/>
				</g>
			</g>
		</g>
		<path class="st0" d="M20,29.3c5.2,0,9.5-4.3,9.5-9.5s-4.3-9.5-9.5-9.5c-5.2,0-9.5,4.2-9.5,9.5C10.5,25,14.7,29.3,20,29.3
			C20,29.3,20,29.3,20,29.3z"/>
	</g>
	<g>
		<g>
			<path d="M95.1,27.8c3.2,0,5.2,2.1,5.2,5.3c0,3.2-2,5.3-5.2,5.3c-3.1,0-5.2-2.1-5.2-5.3C89.9,29.9,91.9,27.8,95.1,27.8z
				 M95.1,36.3c1.9,0,2.4-1.6,2.4-3.2c0-1.6-0.6-3.2-2.4-3.2c-1.9,0-2.4,1.6-2.4,3.2C92.6,34.7,93.2,36.3,95.1,36.3z"/>
			<path d="M111.4,38.1h-2.6v-1.4h-0.1c-0.7,1.1-1.9,1.7-3.1,1.7c-2.9,0-3.7-1.7-3.7-4.1v-6.2h2.8v5.7c0,1.7,0.5,2.5,1.8,2.5
				c1.5,0,2.1-0.8,2.1-2.9v-5.3h2.8V38.1z"/>
			<path d="M113.4,28.1h2.6v1.4h0.1c0.7-1.1,1.9-1.7,3.1-1.7c2.9,0,3.7,1.7,3.7,4.1v6.2H120v-5.7c0-1.7-0.5-2.5-1.8-2.5
				c-1.5,0-2.1,0.8-2.1,2.9v5.3h-2.8V28.1z"/>
			<path d="M132,36.9L132,36.9c-0.7,1.1-1.8,1.6-3.1,1.6c-3,0-4.5-2.6-4.5-5.4c0-2.7,1.5-5.2,4.4-5.2c1.2,0,2.4,0.5,3,1.5h0v-5h2.8
				v13.9H132V36.9z M129.6,29.9c-1.8,0-2.4,1.6-2.4,3.2c0,1.6,0.7,3.2,2.4,3.2c1.8,0,2.4-1.6,2.4-3.2
				C131.9,31.5,131.3,29.9,129.6,29.9z"/>
			<path d="M136.5,31.2c0.2-2.6,2.5-3.4,4.7-3.4c2,0,4.4,0.4,4.4,2.9v5.2c0,0.9,0.1,1.8,0.3,2.2h-2.8c-0.1-0.3-0.2-0.6-0.2-1
				c-0.9,0.9-2.2,1.2-3.4,1.2c-1.9,0-3.4-1-3.4-3c0-2.3,1.7-2.8,3.4-3c1.7-0.3,3.3-0.2,3.3-1.3c0-1.2-0.8-1.4-1.8-1.4
				c-1,0-1.7,0.4-1.8,1.5H136.5z M142.8,33.2c-0.5,0.4-1.4,0.4-2.3,0.6c-0.9,0.2-1.6,0.5-1.6,1.5c0,1,0.8,1.3,1.7,1.3
				c2.2,0,2.2-1.7,2.2-2.3V33.2z"/>
			<path d="M151.1,28.1h2v1.8h-2v5c0,0.9,0.2,1.2,1.2,1.2c0.3,0,0.6,0,0.9-0.1v2.2c-0.5,0.1-1.1,0.1-1.6,0.1c-1.7,0-3.2-0.4-3.2-2.4
				v-5.9h-1.7v-1.8h1.7v-3h2.8V28.1z"/>
			<g>
				<rect x="154.5" y="24.3" width="2.8" height="2.3"/>
				<polygon points="80,24.3 80,38.1 82.7,38.1 82.7,32.4 88.3,32.4 88.3,30 82.7,30 82.7,26.6 89.1,26.6 89.1,24.3 				"/>
				<rect x="154.5" y="28.1" width="2.8" height="10"/>
			</g>
			<path d="M164.3,27.8c3.2,0,5.2,2.1,5.2,5.3c0,3.2-2,5.3-5.2,5.3c-3.1,0-5.2-2.1-5.2-5.3C159.1,29.9,161.1,27.8,164.3,27.8z
				 M164.3,36.3c1.9,0,2.4-1.6,2.4-3.2c0-1.6-0.6-3.2-2.4-3.2c-1.9,0-2.4,1.6-2.4,3.2C161.8,34.7,162.4,36.3,164.3,36.3z"/>
			<path d="M171.1,28.1h2.6v1.4h0.1c0.7-1.1,1.9-1.7,3.1-1.7c2.9,0,3.7,1.7,3.7,4.1v6.2h-2.8v-5.7c0-1.7-0.5-2.5-1.8-2.5
				c-1.5,0-2.1,0.8-2.1,2.9v5.3h-2.8V28.1z"/>
		</g>
		<g>
			<path d="M94.2,1.1H97v5.2h0.1c0.7-1.1,1.9-1.7,2.9-1.7c2.9,0,3.7,1.7,3.7,4.1v6.2h-2.8V9.2c0-1.7-0.5-2.5-1.8-2.5
				c-1.5,0-2.1,0.8-2.1,2.9v5.3h-2.8V1.1z"/>
			<path d="M105.6,8c0.2-2.6,2.5-3.4,4.7-3.4c2,0,4.4,0.4,4.4,2.9v5.2c0,0.9,0.1,1.8,0.3,2.2h-2.8c-0.1-0.3-0.2-0.6-0.2-1
				c-0.9,0.9-2.2,1.2-3.4,1.2c-1.9,0-3.4-1-3.4-3c0-2.3,1.7-2.8,3.4-3c1.7-0.3,3.3-0.2,3.3-1.3c0-1.2-0.8-1.4-1.8-1.4
				c-1,0-1.7,0.4-1.8,1.5H105.6z M111.9,10c-0.5,0.4-1.4,0.4-2.3,0.6c-0.9,0.2-1.6,0.5-1.6,1.5c0,1,0.8,1.3,1.7,1.3
				c2.2,0,2.2-1.7,2.2-2.3V10z"/>
			<path d="M116.8,4.9h2.6v1.4h0c0.7-1,1.8-1.6,3.1-1.6c1.3,0,2.4,0.5,2.9,1.7c0.6-0.9,1.6-1.7,3-1.7c2.1,0,3.7,1,3.7,3.6v6.7h-2.8
				V9.2c0-1.3-0.1-2.4-1.7-2.4c-1.6,0-1.8,1.3-1.8,2.5v5.6h-2.8V9.3c0-1.2,0.1-2.5-1.7-2.5c-0.5,0-1.9,0.3-1.9,2.3v5.8h-2.8V4.9z"/>
			<path d="M134.2,4.9h2.6v1.3h0c0.7-1.1,1.7-1.6,3-1.6c3.1,0,4.6,2.5,4.6,5.4c0,2.7-1.5,5.2-4.4,5.2c-1.2,0-2.3-0.5-3-1.5h0v4.8
				h-2.8V4.9z M141.7,9.9c0-1.6-0.6-3.2-2.4-3.2c-1.8,0-2.4,1.6-2.4,3.2c0,1.6,0.6,3.2,2.4,3.2C141.1,13.1,141.7,11.6,141.7,9.9z"/>
			<path d="M145.9,8c0.2-2.6,2.5-3.4,4.7-3.4c2,0,4.4,0.4,4.4,2.9v5.2c0,0.9,0.1,1.8,0.3,2.2h-2.8c-0.1-0.3-0.2-0.6-0.2-1
				c-0.9,0.9-2.2,1.2-3.4,1.2c-1.9,0-3.4-1-3.4-3c0-2.3,1.7-2.8,3.4-3c1.7-0.3,3.3-0.2,3.3-1.3c0-1.2-0.8-1.4-1.8-1.4
				c-1,0-1.7,0.4-1.8,1.5H145.9z M152.3,10c-0.5,0.4-1.4,0.4-2.3,0.6c-0.9,0.2-1.6,0.5-1.6,1.5c0,1,0.8,1.3,1.7,1.3
				c2.2,0,2.2-1.7,2.2-2.3V10z"/>
			<path d="M157.2,1.1h2.8v13.9h-2.8V1.1z"/>
			<path d="M164.9,3.3h-2.8V1.1h2.8V3.3z M162.1,4.9h2.8v10h-2.8V4.9z"/>
			<path d="M167,4.9h2.6v1.4h0c0.7-1,1.8-1.6,3.1-1.6c1.3,0,2.4,0.5,2.9,1.7c0.6-0.9,1.6-1.7,3-1.7c2.1,0,3.7,1,3.7,3.6v6.7h-2.8
				V9.2c0-1.3-0.1-2.4-1.7-2.4c-1.6,0-1.8,1.3-1.8,2.5v5.6h-2.8V9.3c0-1.2,0.1-2.5-1.7-2.5c-0.5,0-1.9,0.3-1.9,2.3v5.8H167V4.9z"/>
			<path d="M184.3,8c0.2-2.6,2.5-3.4,4.7-3.4c2,0,4.4,0.4,4.4,2.9v5.2c0,0.9,0.1,1.8,0.4,2.2H191c-0.1-0.3-0.2-0.6-0.2-1
				c-0.9,0.9-2.2,1.2-3.4,1.2c-1.9,0-3.4-1-3.4-3c0-2.3,1.7-2.8,3.4-3c1.7-0.3,3.3-0.2,3.3-1.3c0-1.2-0.8-1.4-1.8-1.4
				c-1,0-1.7,0.4-1.8,1.5H184.3z M190.7,10c-0.5,0.4-1.4,0.4-2.3,0.6c-0.9,0.2-1.6,0.5-1.6,1.5c0,1,0.8,1.3,1.7,1.3
				c2.2,0,2.2-1.7,2.2-2.3V10z"/>
			<path d="M204.9,14.9h-2.6v-1.4h-0.1c-0.7,1.1-1.9,1.7-3.1,1.7c-2.9,0-3.7-1.7-3.7-4.1V4.9h2.8v5.7c0,1.7,0.5,2.5,1.8,2.5
				c1.5,0,2.1-0.8,2.1-2.9V4.9h2.8V14.9z"/>
			<path d="M214.1,13.6L214.1,13.6c-0.7,1.1-1.8,1.6-3.1,1.6c-3,0-4.5-2.6-4.5-5.4c0-2.7,1.5-5.2,4.4-5.2c1.2,0,2.4,0.5,3,1.5h0v-5
				h2.8v13.9h-2.6V13.6z M211.7,6.7c-1.8,0-2.4,1.6-2.4,3.2c0,1.6,0.7,3.2,2.4,3.2c1.8,0,2.4-1.6,2.4-3.2
				C214.1,8.2,213.5,6.7,211.7,6.7z"/>
			<path d="M89.8,9.6c-0.3,1.8-1.3,3.2-3.4,3.2c-2.8,0-3.6-2.4-3.6-4.8c0-2.5,0.8-4.9,3.6-4.9c1.9,0,2.8,1.1,3.3,2.6h2.8
				c-0.4-3.2-2.8-5-5.8-5C82.3,0.8,80,4,80,8c0,4,2.4,7.1,6.6,7.1c3.4,0,5.6-2.2,5.9-5.6H89.8z"/>
		</g>
	</g>
</g>
</svg>
